<svg xmlns="http://www.w3.org/2000/svg" width="1024" height="1024" viewBox="0 0 1024 1024">
  <defs>
    <linearGradient id="bg" x1="0" y1="0" x2="0" y2="1"><stop offset="0" stop-color="#31465f"></stop><stop offset="0.6" stop-color="#1a2634"></stop><stop offset="1" stop-color="#10161e"></stop></linearGradient>
    <linearGradient id="pane" x1="0" y1="0" x2="0" y2="1"><stop offset="0" stop-color="#ffffff"></stop><stop offset="1" stop-color="#d7e1ec"></stop></linearGradient>
    <radialGradient id="glow" cx="0.5" cy="0.4" r="0.65"><stop offset="0" stop-color="#7fa5d0" stop-opacity="0.5"></stop><stop offset="0.55" stop-color="#526f91" stop-opacity="0.16"></stop><stop offset="1" stop-color="#526f91" stop-opacity="0"></stop></radialGradient>
    <filter id="blur" x="-40%" y="-40%" width="180%" height="180%"><feGaussianBlur stdDeviation="36"></feGaussianBlur></filter>
  </defs>
  <rect width="1024" height="1024" rx="224" fill="url(#bg)"></rect>
  <rect width="1024" height="1024" rx="224" fill="url(#glow)"></rect>
  <rect x="4" y="4" width="1016" height="1016" rx="220" fill="none" stroke="rgb(255 255 255 / 14%)" stroke-width="8"></rect>
  <rect x="184" y="216" width="308" height="592" rx="48" fill="rgb(158 193 232 / 15%)" stroke="rgb(255 255 255 / 16%)" stroke-width="4"></rect>
  <path d="M256 344 h72 M256 440 h164 M256 536 h120 M256 632 h164" stroke="#9ec1e8" stroke-width="40" stroke-linecap="round" fill="none"></path>
  <rect x="532" y="216" width="308" height="592" rx="48" fill="#8fb0d6" opacity="0.6" filter="url(#blur)"></rect>
  <rect x="532" y="216" width="308" height="592" rx="48" fill="url(#pane)"></rect>
  <path d="M604 452 V344 L686 430 L768 344 V452 M604 560 h164 M604 656 h120" fill="none" stroke="#26384b" stroke-width="40" stroke-linecap="round" stroke-linejoin="round"></path>
</svg>